<?xml version="1.0" encoding="UTF-8"?>
<!-- Generated by Pixelmator Pro 3.3 -->
<svg width="711" height="737" viewBox="0 0 711 737" xmlns="http://www.w3.org/2000/svg" xmlns:xlink="http://www.w3.org/1999/xlink">
    <path id="Percorso" fill="#2c2c2c" stroke="none" d="M 230.048004 594.280029 C 217.247986 594.280029 207.007996 584.039978 207.007996 571.23999 C 207.007996 558.440002 217.247986 548.200012 230.048004 547.687988 L 481.952026 547.687988 C 494.752014 547.687988 504.992004 557.927979 504.992004 571.23999 C 504.992004 584.039978 494.752014 594.280029 481.952026 594.280029 L 230.048004 594.280029 Z"/>
    <path id="path1" fill="#2c2c2c" stroke="none" d="M 661.664001 159.079956 L 602.271973 159.079956 L 602.271973 64.872009 C 602.271973 29.031982 573.088013 -0.151978 537.247986 -0.151978 L 176.799988 -0.151978 C 140.959991 -0.151978 111.776001 29.031982 111.776001 64.872009 L 111.776001 159.079956 L 50.335999 159.079956 C 22.175995 159.079956 -0.352005 181.608032 -0.352005 209.768005 L -0.352005 531.815979 C -0.352005 559.976013 22.175995 582.504028 50.335999 582.504028 L 73.888 582.504028 C 82.080002 582.504028 88.223999 575.848022 88.223999 568.16803 L 88.223999 515.94397 L 87.712006 515.94397 C 72.352005 515.94397 60.063995 502.632019 61.600006 487.271973 C 63.136002 473.960022 74.912003 463.719971 88.735992 463.719971 L 112.287994 463.719971 L 112.287994 672.104004 C 112.287994 707.94397 130.720001 737.127991 177.312012 737.127991 L 535.200012 737.127991 C 583.328003 737.127991 600.223999 707.94397 600.223999 672.104004 L 600.223999 463.719971 L 623.263977 463.719971 C 629.919983 463.719971 636.575989 466.791992 641.695984 471.400024 C 646.304016 476.52002 649.375977 483.176025 648.864014 489.83197 C 648.864014 504.16803 637.088013 515.432007 623.263977 515.432007 L 622.23999 515.432007 L 622.752014 567.656006 C 622.752014 575.848022 629.40802 581.992004 637.088013 581.992004 L 660.640015 581.992004 C 688.799988 581.992004 711.328003 559.463989 711.328003 531.304016 L 711.328003 209.768005 C 712.35199 181.608032 689.823975 159.079956 661.664001 159.079956 Z M 164 64.872009 C 164 57.703979 169.631989 52.072021 176.799988 52.072021 L 537.247986 52.072021 C 544.416016 52.072021 550.047974 57.703979 550.047974 64.872009 L 550.047974 159.079956 L 164 159.079956 L 164 64.872009 Z M 548 672.104004 C 548 679.271973 542.367981 684.903992 535.200012 684.903992 L 177.312012 684.903992 C 170.144012 684.903992 164.511993 679.271973 164.511993 672.104004 L 164.511993 463.719971 L 548 463.719971 L 548 672.104004 Z M 574.112 325.992004 C 555.679993 325.992004 540.83197 311.144043 540.83197 292.712036 C 540.83197 274.280029 555.679993 259.432007 574.112 259.432007 C 592.544006 259.432007 607.392029 274.280029 607.392029 292.712036 C 607.903992 310.631958 592.544006 325.992004 574.112 325.992004 Z"/>
</svg>
